<?xml version="1.0" encoding="UTF-8"?>
<svg width="61px" height="52px" viewBox="0 0 61 52" version="1.1" xmlns="http://www.w3.org/2000/svg" xmlns:xlink="http://www.w3.org/1999/xlink">
    <!-- Generator: Sketch 41.2 (35397) - http://www.bohemiancoding.com/sketch -->
    <title>rides.nonactive</title>
    <desc>Created with Sketch.</desc>
    <defs>
        <rect id="path-1" x="-84" y="-15" width="659" height="115"></rect>
        <mask id="mask-2" maskContentUnits="userSpaceOnUse" maskUnits="objectBoundingBox" x="0" y="0" width="659" height="115" fill="white">
            <use xlink:href="#path-1"></use>
        </mask>
    </defs>
    <g id="Symbols" stroke="none" stroke-width="1" fill="none" fill-rule="evenodd">
        <use id="Rectangle" stroke="#979797" mask="url(#mask-2)" stroke-width="2" fill="#3E1B2C" xlink:href="#path-1"></use>
        <g id="rides.nonactive" fill="#FFFFFF">
            <g id="Car-Icon">
                <g id="Group">
                    <path d="M55.4642625,17.8388758 L50.4640921,4.68040479 C49.528962,2.16147794 47.4854619,0.0180278575 43.6180616,0 L36.566461,0 L24.51469,0 L17.3404794,0 C13.4907691,0.0180278575 11.4472689,2.16147794 10.4950588,4.68040479 L5.49366839,17.8388758 C3.50811822,18.0999689 -0.00609206965,20.4777811 7.93085627e-06,24.9822589 L7.93085627e-06,41.736355 L4.87939834,41.736355 L4.87939834,47.0844121 C4.86719834,53.6776348 14.0226891,53.5993068 14.0202491,47.0844121 L14.0202491,41.736355 L30.5000105,41.736355 L46.9382918,41.736355 L46.9382918,47.0844121 C46.9584218,53.5993068 56.1139126,53.6776348 56.1200126,47.0844121 L56.1200126,41.736355 L61.000013,41.736355 L61.000013,24.9822589 C60.984763,20.4777811 57.4681127,18.0999689 55.4642625,17.8388758 Z M9.59347873,31.6258352 C7.25473853,31.6326733 5.36129838,29.6446358 5.37105838,27.1996854 C5.36129838,24.7379503 7.25473853,22.7480479 9.59347873,22.7685623 C11.9248989,22.7480479 13.8183391,24.7379503 13.8152891,27.1996854 C13.8183391,29.6446358 11.9242889,31.6320517 9.59347873,31.6258352 Z M30.5000105,17.7151674 L30.4591405,17.7151674 L10.7000188,17.7151674 L14.4710391,7.35350089 C14.9260992,5.88267638 15.6324792,4.8302225 17.3008294,4.80473484 L30.4591405,4.80473484 L30.5000105,4.80473484 L43.7004116,4.80473484 C45.3431417,4.8302225 46.0513518,5.88205473 46.5283718,7.35350089 L50.3000021,17.7151674 L30.5000105,17.7151674 Z M51.4071522,31.6258352 C49.051942,31.6326733 47.1572819,29.6446358 47.1444718,27.1996854 C47.1572819,24.7379503 49.051942,22.7480479 51.4071522,22.7685623 C53.7221024,22.7480479 55.6149326,24.7379503 55.6295726,27.1996854 C55.6149326,29.6446358 53.7221024,31.6320517 51.4071522,31.6258352 Z" id="Shape"></path>
                </g>
            </g>
        </g>
    </g>
</svg>