<?xml version="1.0" encoding="UTF-8"?>
<svg width="61px" height="64px" viewBox="0 0 61 64" version="1.1" xmlns="http://www.w3.org/2000/svg" xmlns:xlink="http://www.w3.org/1999/xlink">
    <!-- Generator: Sketch 41.2 (35397) - http://www.bohemiancoding.com/sketch -->
    <title>schedule.active</title>
    <desc>Created with Sketch.</desc>
    <defs></defs>
    <g id="Symbols" stroke="none" stroke-width="1" fill="none" fill-rule="evenodd">
        <g id="schedule.active" fill="#DD7C00">
            <g id="Schedule-Icon">
                <g id="Group">
                    <path d="M0,20.48 L0,58.81984 C0,61.68128 2.48297727,64 5.54545455,64 L55.4545455,64 C58.5170227,64 61,61.68128 61,58.81984 L61,20.48 L0,20.48 Z M15.25,60.16 L4.15909091,60.16 L4.15909091,49.92 L15.25,49.92 L15.25,60.16 Z M15.25,47.36 L4.15909091,47.36 L4.15909091,37.12 L15.25,37.12 L15.25,47.36 Z M15.25,34.56 L4.15909091,34.56 L4.15909091,24.32 L15.25,24.32 L15.25,34.56 Z M29.1136364,60.16 L18.0227273,60.16 L18.0227273,49.92 L29.1136364,49.92 L29.1136364,60.16 Z M29.1136364,47.36 L18.0227273,47.36 L18.0227273,37.12 L29.1136364,37.12 L29.1136364,47.36 Z M29.1136364,34.56 L18.0227273,34.56 L18.0227273,24.32 L29.1136364,24.32 L29.1136364,34.56 Z M42.9772727,60.16 L31.8863636,60.16 L31.8863636,49.92 L42.9772727,49.92 L42.9772727,60.16 Z M42.9772727,47.36 L31.8863636,47.36 L31.8863636,37.12 L42.9772727,37.12 L42.9772727,47.36 Z M42.9772727,34.56 L31.8863636,34.56 L31.8863636,24.32 L42.9772727,24.32 L42.9772727,34.56 Z M56.8409091,60.16 L45.75,60.16 L45.75,49.92 L56.8409091,49.92 L56.8409091,60.16 Z M56.8409091,47.36 L45.75,47.36 L45.75,37.12 L56.8409091,37.12 L56.8409091,47.36 Z M56.8409091,34.56 L45.75,34.56 L45.75,24.32 L56.8409091,24.32 L56.8409091,34.56 Z" id="Shape"></path>
                    <path d="M55.4545455,7.68 L46.4431818,7.68 L46.4431818,1.92 C46.4431818,0.85952 45.5115455,0 44.3636364,0 C43.2150341,0 42.2840909,0.85952 42.2840909,1.92 L42.2840909,7.68 L18.7159091,7.68 L18.7159091,1.92 C18.7159091,0.85952 17.7842727,0 16.6363636,0 C15.4877614,0 14.5568182,0.85952 14.5568182,1.92 L14.5568182,7.68 L5.54545455,7.68 C2.48297727,7.68 0,9.99872 0,12.85952 L0,17.28 L0,17.28 L0,17.92 L61,17.92 L61,17.28 L61,17.28 L61,12.85952 C61,9.99872 58.5170227,7.68 55.4545455,7.68 Z M16.6363636,16.64 C14.3398523,16.64 12.4772727,14.92032 12.4772727,12.8 C12.4772727,11.37984 13.3153295,10.14272 14.5568182,9.4784 L14.5568182,12.8 C14.5568182,13.86048 15.4877614,14.72 16.6363636,14.72 C17.7842727,14.72 18.7159091,13.86048 18.7159091,12.8 L18.7159091,9.47776 C19.9580909,10.14208 20.7954545,11.37984 20.7954545,12.8 C20.7954545,14.92032 18.9335682,16.64 16.6363636,16.64 Z M44.3636364,16.64 C42.067125,16.64 40.2045455,14.92032 40.2045455,12.8 C40.2045455,11.37984 41.0426023,10.14272 42.2840909,9.4784 L42.2840909,12.8 C42.2840909,13.86048 43.2150341,14.72 44.3636364,14.72 C45.5115455,14.72 46.4431818,13.86048 46.4431818,12.8 L46.4431818,9.47776 C47.6853636,10.14208 48.5227273,11.37984 48.5227273,12.8 C48.5227273,14.92032 46.6608409,16.64 44.3636364,16.64 Z" id="Shape"></path>
                </g>
            </g>
        </g>
    </g>
</svg>