<?xml version="1.0" encoding="UTF-8"?>
<svg width="61px" height="64px" viewBox="0 0 61 64" version="1.1" xmlns="http://www.w3.org/2000/svg" xmlns:xlink="http://www.w3.org/1999/xlink">
    <!-- Generator: Sketch 41.2 (35397) - http://www.bohemiancoding.com/sketch -->
    <title>settings.nonactive</title>
    <desc>Created with Sketch.</desc>
    <defs>
        <rect id="path-1" x="-562" y="-15" width="659" height="115"></rect>
        <mask id="mask-2" maskContentUnits="userSpaceOnUse" maskUnits="objectBoundingBox" x="0" y="0" width="659" height="115" fill="white">
            <use xlink:href="#path-1"></use>
        </mask>
    </defs>
    <g id="Symbols" stroke="none" stroke-width="1" fill="none" fill-rule="evenodd">
        <use id="Rectangle" stroke="#979797" mask="url(#mask-2)" stroke-width="2" fill="#3E1B2C" xlink:href="#path-1"></use>
        <g id="settings.nonactive" fill="#FFFFFF">
            <g id="Settings">
                <g id="Group">
                    <g transform="translate(0.000000, 0.473179)" id="Shape">
                        <path d="M25.6083262,0 C23.9436287,0 22.6194769,1.32350084 22.6194769,2.96747405 L22.6194769,7.04775087 C18.7812966,8.21105262 15.332688,10.2441136 12.4999527,12.9131488 L8.87564895,10.9193772 C7.42286994,10.1168016 5.6169687,10.6206045 4.80431315,12.0553633 L0.379930429,19.8217993 C-0.432800209,21.2565508 0.103773639,23.076332 1.55662796,23.8788927 L5.15736006,25.8726644 C4.78834771,27.5791029 4.59254524,29.3432736 4.59254524,31.1584923 C4.59254524,32.973622 4.78834771,34.7378595 5.15736006,36.4443055 L1.55662796,38.4380771 C0.103773639,39.2406305 -0.432800209,41.0604339 0.379930429,42.4951335 L4.80431315,50.2616065 C5.6169687,51.6963802 7.42294524,52.2001831 8.87564895,51.3975556 L12.4999527,49.403784 C15.332688,52.0727301 18.7812966,54.105895 22.6194769,55.269219 L22.6194769,59.3494958 C22.6194769,60.9934764 23.9436287,62.3169699 25.6083262,62.3169699 L34.6453633,62.3169699 C36.3099855,62.3169699 37.6342127,60.9934764 37.6342127,59.3494958 L37.6342127,55.269219 C41.4723929,54.105895 44.9210016,52.0727301 47.7537361,49.403784 L51.3780398,51.3975556 C52.8308941,52.2001831 54.6366448,51.6963802 55.4493756,50.2616065 L59.8737583,42.4951335 C60.6864139,41.0604339 60.1498398,39.2406305 58.6970608,38.4380771 L55.0963287,36.4443055 C55.4653411,34.7378595 55.6611435,32.973622 55.6611435,31.1584923 C55.6611435,29.3432736 55.4653411,27.5791029 55.0963287,25.8726644 L58.6970608,23.8788927 C60.1498398,23.076332 60.6864139,21.2565508 59.8737583,19.8217993 L55.4493756,12.0553633 C54.6366448,10.620597 52.8308941,10.1168164 51.3780398,10.9193772 L47.7537361,12.9131488 C44.9210016,10.2441136 41.4723929,8.21105262 37.6342127,7.04775087 L37.6342127,2.96747405 C37.6342127,1.32350084 36.3099855,8.43406851e-14 34.6453633,8.43406851e-14 L25.6083262,8.43406851e-14 L25.6083262,0 Z M30.1268448,16.3211073 C38.4273633,16.3211073 45.1885732,22.981536 45.1885732,31.1584923 C45.1885732,39.3352929 38.4273633,45.9958626 30.1268448,45.9958626 C21.8263262,45.9958626 15.0651164,39.3353671 15.0651164,31.1584923 C15.0651164,22.9815286 21.8263262,16.3211073 30.1268448,16.3211073 Z M30.1268448,19.2885813 C23.4543485,19.2885813 18.077462,24.5852554 18.077462,31.1584923 C18.077462,37.7315957 23.4543485,43.0283885 30.1268448,43.0283885 C36.7994164,43.0283885 42.1762275,37.7315957 42.1762275,31.1584923 C42.1762275,24.5852628 36.7994164,19.2885813 30.1268448,19.2885813 Z"></path>
                    </g>
                </g>
            </g>
        </g>
    </g>
</svg>